<svg xmlns="http://www.w3.org/2000/svg" xmlns:xlink="http://www.w3.org/1999/xlink" version="1.1" x="0px" y="0px" viewBox="0 0 64 80" style="enable-background:new 0 0 64 64;" xml:space="preserve"><g><polygon points="28,10.071 34.636,16.707 36.05,15.293 28,7.243 24.949,10.293 26.363,11.707  "/><rect x="36.343" y="16.586" transform="matrix(0.7071 -0.7071 0.7071 0.7071 -1.7905 31.6774)" width="2" height="2.828"/><rect x="52.929" y="36" transform="matrix(0.7071 -0.7071 0.7071 0.7071 -10.2463 49.2632)" width="2.828" height="2"/><path d="M49,43c0.479,0,0.95-0.194,1.293-0.535l2.758-2.758l-1.414-1.414L49,40.93l-1.637-1.637l-1.414,1.414l1.76,1.76   C48.05,42.806,48.521,43,49,43z"/><path d="M60.414,34l3-3L33,0.586l-3,3l-2-2l-9.293,9.293C17.606,11.979,17,13.443,17,15s0.606,3.021,1.707,4.121l8.525,8.525   C27.728,28.142,28,28.8,28,29.5s-0.272,1.358-0.768,1.854L20.586,38h-1.929c-1.336,0-2.592,0.521-3.536,1.465L1,53.586V54   c0,4.963,4.037,9,9,9h0.414l14.121-14.121c0.944-0.944,1.465-2.2,1.465-3.536v-1.929l6.646-6.646c0.977-0.975,2.73-0.975,3.707,0   L39,39.414V53c0,1.654,1.346,3,3,3s3-1.346,3-3v-1c0-0.552,0.448-1,1-1s1,0.448,1,1v8c0,1.654,1.346,3,3,3s3-1.346,3-3v-5   c0-0.552,0.448-1,1-1s1,0.448,1,1v3c0,1.654,1.346,3,3,3s3-1.346,3-3V37.414L62.414,36L60.414,34z M33,3.414L60.586,31L59,32.586   L31.414,5L33,3.414z M19,15c0-1.022,0.398-1.984,1.121-2.707L28,4.414L59.586,36l-7.879,7.879C50.994,44.592,50.008,45,49,45   s-1.994-0.408-2.707-1.121l-7.128-7.128C39.703,35.577,40,34.3,40,33c0-4.962-4.037-9-9-9c-1.299,0-2.577,0.297-3.751,0.835   l-7.128-7.128C19.398,16.984,19,16.022,19,15z M4.145,53.269L15,42.414L21.586,49L10.731,59.855   C9.934,56.615,7.385,54.066,4.145,53.269z M3.087,55.093c2.989,0.469,5.35,2.831,5.82,5.82C5.921,60.443,3.557,58.079,3.087,55.093   z M23.121,47.465L23,47.586L16.414,41l0.121-0.121C17.102,40.312,17.855,40,18.657,40h1.929L24,43.414v1.929   C24,46.145,23.688,46.898,23.121,47.465z M34.5,34c-1.217,0-2.407,0.493-3.268,1.354L25,41.586L22.414,39l6.232-6.232   C29.52,31.894,30,30.734,30,29.5c0-1.169-0.444-2.264-1.232-3.12C29.485,26.139,30.237,26,31,26c3.859,0,7,3.14,7,7   c0,0.763-0.138,1.515-0.38,2.233C36.773,34.455,35.653,34,34.5,34z M59,58c0,0.552-0.448,1-1,1s-1-0.448-1-1v-3   c0-1.654-1.346-3-3-3s-3,1.346-3,3v5c0,0.552-0.448,1-1,1s-1-0.448-1-1v-8c0-1.654-1.346-3-3-3s-3,1.346-3,3v1c0,0.552-0.448,1-1,1   s-1-0.448-1-1V41.414l3.879,3.879C45.964,46.378,47.466,47,49,47s3.036-0.622,4.121-1.707L59,39.414V58z"/></g><text x="0" y="79" fill="#000000" font-size="5px" font-weight="bold" font-family="'Helvetica Neue', Helvetica, Arial-Unicode, Arial, Sans-serif">Created by Eucalyp</text><text x="0" y="84" fill="#000000" font-size="5px" font-weight="bold" font-family="'Helvetica Neue', Helvetica, Arial-Unicode, Arial, Sans-serif">from the Noun Project</text></svg>